<svg xmlns="http://www.w3.org/2000/svg" xmlns:xlink="http://www.w3.org/1999/xlink" width="1366" zoomAndPan="magnify" viewBox="0 0 1024.5 320.999992" height="428" preserveAspectRatio="xMidYMid meet" version="1.0"><defs><clipPath id="adc9d450d2"><path d="M 0 0.078125 L 1024 0.078125 L 1024 320.921875 L 0 320.921875 Z M 0 0.078125 " clip-rule="nonzero"/></clipPath><clipPath id="fb07f19176"><path d="M 386 32.164062 L 612 32.164062 L 612 249.554688 L 386 249.554688 Z M 386 32.164062 " clip-rule="nonzero"/></clipPath><clipPath id="caf42e2247"><path d="M 372.410156 32.164062 L 628.035156 32.164062 L 628.035156 249.554688 L 372.410156 249.554688 Z M 372.410156 32.164062 " clip-rule="nonzero"/></clipPath><clipPath id="df8c4283fb"><path d="M 386 118 L 612 118 L 612 249.554688 L 386 249.554688 Z M 386 118 " clip-rule="nonzero"/></clipPath><clipPath id="494fe110c7"><path d="M 146 32.164062 L 371 32.164062 L 371 249.554688 L 146 249.554688 Z M 146 32.164062 " clip-rule="nonzero"/></clipPath><clipPath id="65eb238aa3"><path d="M 131.632812 32.164062 L 387.257812 32.164062 L 387.257812 249.554688 L 131.632812 249.554688 Z M 131.632812 32.164062 " clip-rule="nonzero"/></clipPath><clipPath id="8e1720e787"><path d="M 146 118 L 371 118 L 371 249.554688 L 146 249.554688 Z M 146 118 " clip-rule="nonzero"/></clipPath><clipPath id="6bfafe5f42"><path d="M 631 32.164062 L 857 32.164062 L 857 249.554688 L 631 249.554688 Z M 631 32.164062 " clip-rule="nonzero"/></clipPath><clipPath id="8c4223df8a"><path d="M 617.175781 32.164062 L 872.800781 32.164062 L 872.800781 249.554688 L 617.175781 249.554688 Z M 617.175781 32.164062 " clip-rule="nonzero"/></clipPath><clipPath id="998f9f2a2c"><path d="M 631 118 L 857 118 L 857 249.554688 L 631 249.554688 Z M 631 118 " clip-rule="nonzero"/></clipPath><clipPath id="1fcd03fef4"><path d="M 886 32.164062 L 1024 32.164062 L 1024 249.554688 L 886 249.554688 Z M 886 32.164062 " clip-rule="nonzero"/></clipPath><clipPath id="9ae74fde25"><path d="M 872.464844 32.164062 L 1024 32.164062 L 1024 249.554688 L 872.464844 249.554688 Z M 872.464844 32.164062 " clip-rule="nonzero"/></clipPath><clipPath id="8a6b21d3d7"><path d="M 886 118 L 1024 118 L 1024 249.554688 L 886 249.554688 Z M 886 118 " clip-rule="nonzero"/></clipPath><clipPath id="3ce63d00c5"><path d="M 0 32.164062 L 129 32.164062 L 129 249.554688 L 0 249.554688 Z M 0 32.164062 " clip-rule="nonzero"/></clipPath><clipPath id="03a392f072"><path d="M 0 32.164062 L 145.292969 32.164062 L 145.292969 249.554688 L 0 249.554688 Z M 0 32.164062 " clip-rule="nonzero"/></clipPath><clipPath id="046fe6858e"><path d="M 0 118 L 129 118 L 129 249.554688 L 0 249.554688 Z M 0 118 " clip-rule="nonzero"/></clipPath><clipPath id="57d6fd9718"><path d="M 966.109375 108.890625 L 1017.835938 108.890625 L 1017.835938 160.613281 L 966.109375 160.613281 Z M 966.109375 108.890625 " clip-rule="nonzero"/></clipPath><clipPath id="485636bd42"><path d="M 6.164062 108.773438 L 57.886719 108.773438 L 57.886719 160.496094 L 6.164062 160.496094 Z M 6.164062 108.773438 " clip-rule="nonzero"/></clipPath></defs><g clip-path="url(#adc9d450d2)"><path fill="#ffffff" d="M 0 0.078125 L 1024 0.078125 L 1024 320.921875 L 0 320.921875 Z M 0 0.078125 " fill-opacity="1" fill-rule="nonzero"/><path fill="#a8dadc" d="M 0 0.078125 L 1024 0.078125 L 1024 320.921875 L 0 320.921875 Z M 0 0.078125 " fill-opacity="1" fill-rule="nonzero"/></g><g clip-path="url(#fb07f19176)"><path fill="#c8e4fe" d="M 432.597656 31.328125 L 565.609375 31.328125 C 567.105469 31.328125 568.601562 31.402344 570.089844 31.550781 C 571.582031 31.699219 573.0625 31.917969 574.53125 32.210938 C 576 32.503906 577.449219 32.867188 578.882812 33.300781 C 580.316406 33.738281 581.722656 34.242188 583.105469 34.816406 C 584.492188 35.390625 585.84375 36.03125 587.164062 36.738281 C 588.484375 37.445312 589.765625 38.214844 591.011719 39.050781 C 592.257812 39.882812 593.457031 40.777344 594.617188 41.726562 C 595.773438 42.679688 596.882812 43.6875 597.941406 44.746094 C 599 45.808594 600.003906 46.917969 600.953125 48.078125 C 601.902344 49.238281 602.796875 50.441406 603.628906 51.6875 C 604.460938 52.9375 605.226562 54.222656 605.933594 55.546875 C 606.640625 56.867188 607.277344 58.222656 607.851562 59.609375 C 608.425781 60.996094 608.929688 62.40625 609.363281 63.84375 C 609.796875 65.277344 610.160156 66.730469 610.453125 68.203125 C 610.746094 69.675781 610.964844 71.15625 611.113281 72.652344 C 611.257812 74.144531 611.332031 75.640625 611.332031 77.140625 L 611.332031 210.410156 C 611.332031 211.910156 611.257812 213.40625 611.113281 214.898438 C 610.964844 216.390625 610.746094 217.875 610.453125 219.347656 C 610.160156 220.816406 609.796875 222.269531 609.363281 223.707031 C 608.929688 225.144531 608.425781 226.554688 607.851562 227.941406 C 607.277344 229.324219 606.640625 230.679688 605.933594 232.003906 C 605.226562 233.328125 604.460938 234.613281 603.628906 235.859375 C 602.796875 237.109375 601.902344 238.3125 600.953125 239.472656 C 600.003906 240.632812 599 241.742188 597.941406 242.800781 C 596.882812 243.863281 595.773438 244.871094 594.617188 245.820312 C 593.457031 246.773438 592.257812 247.664062 591.011719 248.5 C 589.765625 249.332031 588.484375 250.101562 587.164062 250.8125 C 585.84375 251.519531 584.492188 252.160156 583.105469 252.734375 C 581.722656 253.308594 580.316406 253.8125 578.882812 254.246094 C 577.449219 254.683594 576 255.046875 574.53125 255.339844 C 573.0625 255.632812 571.582031 255.851562 570.089844 256 C 568.601562 256.144531 567.105469 256.21875 565.609375 256.21875 L 432.597656 256.21875 C 431.101562 256.21875 429.605469 256.144531 428.117188 256 C 426.625 255.851562 425.144531 255.632812 423.675781 255.339844 C 422.207031 255.046875 420.757812 254.683594 419.324219 254.246094 C 417.890625 253.8125 416.484375 253.308594 415.101562 252.734375 C 413.714844 252.160156 412.363281 251.519531 411.042969 250.8125 C 409.722656 250.101562 408.441406 249.332031 407.195312 248.5 C 405.949219 247.664062 404.75 246.773438 403.589844 245.820312 C 402.433594 244.871094 401.324219 243.863281 400.265625 242.800781 C 399.207031 241.742188 398.203125 240.632812 397.253906 239.472656 C 396.304688 238.3125 395.414062 237.109375 394.582031 235.859375 C 393.75 234.613281 392.980469 233.328125 392.273438 232.003906 C 391.566406 230.679688 390.929688 229.324219 390.355469 227.941406 C 389.78125 226.554688 389.277344 225.144531 388.84375 223.707031 C 388.410156 222.269531 388.046875 220.816406 387.753906 219.347656 C 387.460938 217.875 387.242188 216.390625 387.09375 214.898438 C 386.949219 213.40625 386.875 211.910156 386.875 210.410156 L 386.875 77.140625 C 386.875 75.640625 386.949219 74.144531 387.09375 72.652344 C 387.242188 71.15625 387.460938 69.675781 387.753906 68.203125 C 388.046875 66.730469 388.410156 65.277344 388.84375 63.84375 C 389.277344 62.40625 389.78125 60.996094 390.355469 59.609375 C 390.929688 58.222656 391.566406 56.867188 392.273438 55.546875 C 392.980469 54.222656 393.75 52.9375 394.582031 51.691406 C 395.414062 50.441406 396.304688 49.238281 397.253906 48.078125 C 398.203125 46.917969 399.207031 45.808594 400.265625 44.746094 C 401.324219 43.6875 402.433594 42.679688 403.589844 41.726562 C 404.75 40.777344 405.949219 39.882812 407.195312 39.050781 C 408.441406 38.214844 409.722656 37.445312 411.042969 36.738281 C 412.363281 36.03125 413.714844 35.390625 415.101562 34.816406 C 416.484375 34.242188 417.890625 33.738281 419.324219 33.300781 C 420.757812 32.867188 422.207031 32.503906 423.675781 32.210938 C 425.144531 31.917969 426.625 31.699219 428.117188 31.550781 C 429.605469 31.402344 431.101562 31.328125 432.597656 31.328125 Z M 432.597656 31.328125 " fill-opacity="1" fill-rule="nonzero"/></g><g clip-path="url(#caf42e2247)"><path fill="#c8e4fe" d="M 654.078125 43.824219 L 654.078125 243.726562 C 654.078125 250.621094 648.492188 256.21875 641.609375 256.21875 C 634.726562 256.21875 629.140625 250.621094 629.140625 243.726562 L 629.140625 43.824219 C 629.140625 36.925781 634.726562 31.328125 641.609375 31.328125 C 648.492188 31.328125 654.078125 36.925781 654.078125 43.824219 Z M 356.582031 31.328125 C 349.699219 31.328125 344.109375 36.925781 344.109375 43.824219 L 344.109375 243.726562 C 344.109375 250.621094 349.699219 256.21875 356.582031 256.21875 C 363.464844 256.21875 369.050781 250.621094 369.050781 243.726562 L 369.050781 43.824219 C 369.050781 36.925781 363.464844 31.328125 356.582031 31.328125 Z M 356.582031 31.328125 " fill-opacity="1" fill-rule="nonzero"/></g><g clip-path="url(#df8c4283fb)"><path fill="#8bc727" d="M 567.457031 127.964844 C 557.679688 118.121094 542.214844 116.605469 530.726562 124.300781 L 496.59375 147.089844 L 466.117188 124.199219 C 456.273438 116.820312 442.773438 116.386719 431.847656 123.734375 L 386.859375 158.183594 L 386.859375 210.410156 C 386.859375 235.679688 407.359375 256.21875 432.582031 256.21875 L 565.59375 256.21875 C 590.816406 256.21875 611.316406 235.679688 611.316406 210.410156 L 611.316406 171.929688 L 567.4375 127.964844 Z M 567.457031 127.964844 " fill-opacity="1" fill-rule="nonzero"/></g><g clip-path="url(#494fe110c7)"><path fill="#c8e4fe" d="M 191.820312 31.328125 L 324.832031 31.328125 C 326.332031 31.328125 327.824219 31.402344 329.316406 31.550781 C 330.804688 31.699219 332.285156 31.917969 333.753906 32.210938 C 335.222656 32.503906 336.671875 32.867188 338.105469 33.300781 C 339.539062 33.738281 340.949219 34.242188 342.332031 34.816406 C 343.714844 35.390625 345.066406 36.03125 346.386719 36.738281 C 347.707031 37.445312 348.992188 38.214844 350.234375 39.050781 C 351.480469 39.882812 352.683594 40.777344 353.839844 41.726562 C 354.996094 42.679688 356.105469 43.6875 357.164062 44.746094 C 358.222656 45.808594 359.226562 46.917969 360.179688 48.078125 C 361.128906 49.238281 362.019531 50.441406 362.851562 51.6875 C 363.683594 52.9375 364.453125 54.222656 365.15625 55.546875 C 365.863281 56.867188 366.503906 58.222656 367.078125 59.609375 C 367.648438 60.996094 368.152344 62.40625 368.589844 63.84375 C 369.023438 65.277344 369.386719 66.730469 369.679688 68.203125 C 369.96875 69.675781 370.191406 71.15625 370.335938 72.652344 C 370.484375 74.144531 370.558594 75.640625 370.558594 77.140625 L 370.558594 210.410156 C 370.558594 211.910156 370.484375 213.40625 370.335938 214.898438 C 370.191406 216.390625 369.96875 217.875 369.679688 219.347656 C 369.386719 220.816406 369.023438 222.269531 368.589844 223.707031 C 368.152344 225.144531 367.648438 226.554688 367.078125 227.941406 C 366.503906 229.324219 365.863281 230.679688 365.15625 232.003906 C 364.453125 233.328125 363.683594 234.613281 362.851562 235.859375 C 362.019531 237.109375 361.128906 238.3125 360.179688 239.472656 C 359.226562 240.632812 358.222656 241.742188 357.164062 242.800781 C 356.105469 243.863281 354.996094 244.871094 353.839844 245.820312 C 352.683594 246.773438 351.480469 247.664062 350.234375 248.5 C 348.992188 249.332031 347.707031 250.101562 346.386719 250.8125 C 345.066406 251.519531 343.714844 252.160156 342.332031 252.734375 C 340.949219 253.308594 339.539062 253.8125 338.105469 254.246094 C 336.671875 254.683594 335.222656 255.046875 333.753906 255.339844 C 332.285156 255.632812 330.804688 255.851562 329.316406 256 C 327.824219 256.144531 326.332031 256.21875 324.832031 256.21875 L 191.820312 256.21875 C 190.324219 256.21875 188.832031 256.144531 187.339844 256 C 185.851562 255.851562 184.371094 255.632812 182.902344 255.339844 C 181.433594 255.046875 179.980469 254.683594 178.550781 254.246094 C 177.117188 253.8125 175.707031 253.308594 174.324219 252.734375 C 172.941406 252.160156 171.589844 251.519531 170.269531 250.8125 C 168.945312 250.101562 167.664062 249.332031 166.417969 248.5 C 165.175781 247.664062 163.972656 246.773438 162.816406 245.820312 C 161.65625 244.871094 160.550781 243.863281 159.492188 242.800781 C 158.433594 241.742188 157.425781 240.632812 156.476562 239.472656 C 155.527344 238.3125 154.636719 237.109375 153.804688 235.859375 C 152.972656 234.613281 152.203125 233.328125 151.496094 232.003906 C 150.792969 230.679688 150.152344 229.324219 149.578125 227.941406 C 149.007812 226.554688 148.503906 225.144531 148.066406 223.707031 C 147.632812 222.269531 147.269531 220.816406 146.976562 219.347656 C 146.683594 217.875 146.464844 216.390625 146.320312 214.898438 C 146.171875 213.40625 146.097656 211.910156 146.097656 210.410156 L 146.097656 77.140625 C 146.097656 75.640625 146.171875 74.144531 146.320312 72.652344 C 146.464844 71.15625 146.683594 69.675781 146.976562 68.203125 C 147.269531 66.730469 147.632812 65.277344 148.066406 63.84375 C 148.503906 62.40625 149.007812 60.996094 149.578125 59.609375 C 150.152344 58.222656 150.792969 56.867188 151.496094 55.546875 C 152.203125 54.222656 152.972656 52.9375 153.804688 51.691406 C 154.636719 50.441406 155.527344 49.238281 156.476562 48.078125 C 157.425781 46.917969 158.433594 45.808594 159.492188 44.746094 C 160.550781 43.6875 161.65625 42.679688 162.816406 41.726562 C 163.972656 40.777344 165.175781 39.882812 166.417969 39.050781 C 167.664062 38.214844 168.945312 37.445312 170.269531 36.738281 C 171.589844 36.03125 172.941406 35.390625 174.324219 34.816406 C 175.707031 34.242188 177.117188 33.738281 178.550781 33.300781 C 179.980469 32.867188 181.433594 32.503906 182.902344 32.210938 C 184.371094 31.917969 185.851562 31.699219 187.339844 31.550781 C 188.832031 31.402344 190.324219 31.328125 191.820312 31.328125 Z M 191.820312 31.328125 " fill-opacity="1" fill-rule="nonzero"/></g><g clip-path="url(#65eb238aa3)"><path fill="#c8e4fe" d="M 413.304688 43.824219 L 413.304688 243.726562 C 413.304688 250.621094 407.71875 256.21875 400.832031 256.21875 C 393.949219 256.21875 388.363281 250.621094 388.363281 243.726562 L 388.363281 43.824219 C 388.363281 36.925781 393.949219 31.328125 400.832031 31.328125 C 407.71875 31.328125 413.304688 36.925781 413.304688 43.824219 Z M 115.804688 31.328125 C 108.921875 31.328125 103.335938 36.925781 103.335938 43.824219 L 103.335938 243.726562 C 103.335938 250.621094 108.921875 256.21875 115.804688 256.21875 C 122.6875 256.21875 128.273438 250.621094 128.273438 243.726562 L 128.273438 43.824219 C 128.273438 36.925781 122.6875 31.328125 115.804688 31.328125 Z M 115.804688 31.328125 " fill-opacity="1" fill-rule="nonzero"/></g><g clip-path="url(#8e1720e787)"><path fill="#8bc727" d="M 326.679688 127.964844 C 316.902344 118.121094 301.441406 116.605469 289.953125 124.300781 L 255.816406 147.089844 L 225.339844 124.199219 C 215.496094 116.820312 201.996094 116.386719 191.074219 123.734375 L 146.082031 158.183594 L 146.082031 210.410156 C 146.082031 235.679688 166.582031 256.21875 191.804688 256.21875 L 324.816406 256.21875 C 350.039062 256.21875 370.539062 235.679688 370.539062 210.410156 L 370.539062 171.929688 L 326.664062 127.964844 Z M 326.679688 127.964844 " fill-opacity="1" fill-rule="nonzero"/></g><g clip-path="url(#6bfafe5f42)"><path fill="#c8e4fe" d="M 677.363281 31.328125 L 810.375 31.328125 C 811.871094 31.328125 813.367188 31.402344 814.855469 31.550781 C 816.347656 31.699219 817.824219 31.917969 819.292969 32.210938 C 820.761719 32.503906 822.214844 32.867188 823.648438 33.300781 C 825.082031 33.738281 826.488281 34.242188 827.871094 34.816406 C 829.253906 35.390625 830.609375 36.03125 831.929688 36.738281 C 833.25 37.445312 834.53125 38.214844 835.777344 39.050781 C 837.023438 39.882812 838.222656 40.777344 839.382812 41.726562 C 840.539062 42.679688 841.648438 43.6875 842.707031 44.746094 C 843.765625 45.808594 844.769531 46.917969 845.71875 48.078125 C 846.667969 49.238281 847.558594 50.441406 848.390625 51.6875 C 849.222656 52.9375 849.992188 54.222656 850.699219 55.546875 C 851.40625 56.867188 852.042969 58.222656 852.617188 59.609375 C 853.191406 60.996094 853.695312 62.40625 854.128906 63.84375 C 854.5625 65.277344 854.925781 66.730469 855.21875 68.203125 C 855.511719 69.675781 855.730469 71.15625 855.878906 72.652344 C 856.023438 74.144531 856.097656 75.640625 856.097656 77.140625 L 856.097656 210.410156 C 856.097656 211.910156 856.023438 213.40625 855.878906 214.898438 C 855.730469 216.390625 855.511719 217.875 855.21875 219.347656 C 854.925781 220.816406 854.5625 222.269531 854.128906 223.707031 C 853.695312 225.144531 853.191406 226.554688 852.617188 227.941406 C 852.042969 229.324219 851.40625 230.679688 850.699219 232.003906 C 849.992188 233.328125 849.222656 234.613281 848.390625 235.859375 C 847.558594 237.109375 846.667969 238.3125 845.71875 239.472656 C 844.769531 240.632812 843.765625 241.742188 842.707031 242.800781 C 841.648438 243.863281 840.539062 244.871094 839.382812 245.820312 C 838.222656 246.773438 837.023438 247.664062 835.777344 248.5 C 834.53125 249.332031 833.25 250.101562 831.929688 250.8125 C 830.609375 251.519531 829.253906 252.160156 827.871094 252.734375 C 826.488281 253.308594 825.082031 253.8125 823.648438 254.246094 C 822.214844 254.683594 820.761719 255.046875 819.292969 255.339844 C 817.824219 255.632812 816.347656 255.851562 814.855469 256 C 813.367188 256.144531 811.871094 256.21875 810.375 256.21875 L 677.363281 256.21875 C 675.863281 256.21875 674.371094 256.144531 672.878906 256 C 671.390625 255.851562 669.910156 255.632812 668.441406 255.339844 C 666.972656 255.046875 665.523438 254.683594 664.089844 254.246094 C 662.65625 253.8125 661.25 253.308594 659.863281 252.734375 C 658.480469 252.160156 657.128906 251.519531 655.808594 250.8125 C 654.488281 250.101562 653.203125 249.332031 651.960938 248.5 C 650.714844 247.664062 649.511719 246.773438 648.355469 245.820312 C 647.199219 244.871094 646.089844 243.863281 645.03125 242.800781 C 643.972656 241.742188 642.96875 240.632812 642.019531 239.472656 C 641.066406 238.3125 640.175781 237.109375 639.34375 235.859375 C 638.511719 234.613281 637.742188 233.328125 637.039062 232.003906 C 636.332031 230.679688 635.691406 229.324219 635.121094 227.941406 C 634.546875 226.554688 634.042969 225.144531 633.609375 223.707031 C 633.171875 222.269531 632.808594 220.816406 632.519531 219.347656 C 632.226562 217.875 632.007812 216.390625 631.859375 214.898438 C 631.710938 213.40625 631.640625 211.910156 631.640625 210.410156 L 631.640625 77.140625 C 631.640625 75.640625 631.710938 74.144531 631.859375 72.652344 C 632.007812 71.15625 632.226562 69.675781 632.519531 68.203125 C 632.808594 66.730469 633.171875 65.277344 633.609375 63.84375 C 634.042969 62.40625 634.546875 60.996094 635.121094 59.609375 C 635.691406 58.222656 636.332031 56.867188 637.039062 55.546875 C 637.742188 54.222656 638.511719 52.9375 639.34375 51.691406 C 640.175781 50.441406 641.066406 49.238281 642.019531 48.078125 C 642.96875 46.917969 643.972656 45.808594 645.03125 44.746094 C 646.089844 43.6875 647.199219 42.679688 648.355469 41.726562 C 649.511719 40.777344 650.714844 39.882812 651.960938 39.050781 C 653.203125 38.214844 654.488281 37.445312 655.808594 36.738281 C 657.128906 36.03125 658.480469 35.390625 659.863281 34.816406 C 661.25 34.242188 662.65625 33.738281 664.089844 33.300781 C 665.523438 32.867188 666.972656 32.503906 668.441406 32.210938 C 669.910156 31.917969 671.390625 31.699219 672.878906 31.550781 C 674.371094 31.402344 675.863281 31.328125 677.363281 31.328125 Z M 677.363281 31.328125 " fill-opacity="1" fill-rule="nonzero"/></g><g clip-path="url(#8c4223df8a)"><path fill="#c8e4fe" d="M 898.84375 43.824219 L 898.84375 243.726562 C 898.84375 250.621094 893.257812 256.21875 886.375 256.21875 C 879.492188 256.21875 873.90625 250.621094 873.90625 243.726562 L 873.90625 43.824219 C 873.90625 36.925781 879.492188 31.328125 886.375 31.328125 C 893.257812 31.328125 898.84375 36.925781 898.84375 43.824219 Z M 601.34375 31.328125 C 594.460938 31.328125 588.875 36.925781 588.875 43.824219 L 588.875 243.726562 C 588.875 250.621094 594.460938 256.21875 601.34375 256.21875 C 608.230469 256.21875 613.816406 250.621094 613.816406 243.726562 L 613.816406 43.824219 C 613.816406 36.925781 608.230469 31.328125 601.34375 31.328125 Z M 601.34375 31.328125 " fill-opacity="1" fill-rule="nonzero"/></g><g clip-path="url(#998f9f2a2c)"><path fill="#8bc727" d="M 812.21875 127.964844 C 802.445312 118.121094 786.980469 116.605469 775.492188 124.300781 L 741.359375 147.089844 L 710.882812 124.199219 C 701.039062 116.820312 687.539062 116.386719 676.613281 123.734375 L 631.621094 158.183594 L 631.621094 210.410156 C 631.621094 235.679688 652.125 256.21875 677.34375 256.21875 L 810.359375 256.21875 C 835.582031 256.21875 856.082031 235.679688 856.082031 210.410156 L 856.082031 171.929688 L 812.203125 127.964844 Z M 812.21875 127.964844 " fill-opacity="1" fill-rule="nonzero"/></g><g clip-path="url(#1fcd03fef4)"><path fill="#c8e4fe" d="M 932.652344 31.328125 L 1065.664062 31.328125 C 1067.160156 31.328125 1068.65625 31.402344 1070.144531 31.550781 C 1071.636719 31.699219 1073.113281 31.917969 1074.582031 32.210938 C 1076.050781 32.503906 1077.503906 32.867188 1078.9375 33.300781 C 1080.371094 33.738281 1081.777344 34.242188 1083.160156 34.816406 C 1084.542969 35.390625 1085.898438 36.03125 1087.21875 36.738281 C 1088.539062 37.445312 1089.820312 38.214844 1091.066406 39.050781 C 1092.3125 39.882812 1093.511719 40.777344 1094.671875 41.726562 C 1095.828125 42.679688 1096.9375 43.6875 1097.996094 44.746094 C 1099.054688 45.808594 1100.058594 46.917969 1101.007812 48.078125 C 1101.957031 49.238281 1102.847656 50.441406 1103.679688 51.6875 C 1104.511719 52.9375 1105.28125 54.222656 1105.988281 55.546875 C 1106.695312 56.867188 1107.332031 58.222656 1107.90625 59.609375 C 1108.480469 60.996094 1108.984375 62.40625 1109.417969 63.84375 C 1109.851562 65.277344 1110.214844 66.730469 1110.507812 68.203125 C 1110.800781 69.675781 1111.019531 71.15625 1111.167969 72.652344 C 1111.3125 74.144531 1111.386719 75.640625 1111.386719 77.140625 L 1111.386719 210.410156 C 1111.386719 211.910156 1111.3125 213.40625 1111.167969 214.898438 C 1111.019531 216.390625 1110.800781 217.875 1110.507812 219.347656 C 1110.214844 220.816406 1109.851562 222.269531 1109.417969 223.707031 C 1108.984375 225.144531 1108.480469 226.554688 1107.90625 227.941406 C 1107.332031 229.324219 1106.695312 230.679688 1105.988281 232.003906 C 1105.28125 233.328125 1104.511719 234.613281 1103.679688 235.859375 C 1102.847656 237.109375 1101.957031 238.3125 1101.007812 239.472656 C 1100.058594 240.632812 1099.054688 241.742188 1097.996094 242.800781 C 1096.9375 243.863281 1095.828125 244.871094 1094.671875 245.820312 C 1093.511719 246.773438 1092.3125 247.664062 1091.066406 248.5 C 1089.820312 249.332031 1088.539062 250.101562 1087.21875 250.8125 C 1085.898438 251.519531 1084.542969 252.160156 1083.160156 252.734375 C 1081.777344 253.308594 1080.371094 253.8125 1078.9375 254.246094 C 1077.503906 254.683594 1076.050781 255.046875 1074.582031 255.339844 C 1073.113281 255.632812 1071.636719 255.851562 1070.144531 256 C 1068.65625 256.144531 1067.160156 256.21875 1065.664062 256.21875 L 932.652344 256.21875 C 931.152344 256.21875 929.660156 256.144531 928.167969 256 C 926.679688 255.851562 925.199219 255.632812 923.730469 255.339844 C 922.261719 255.046875 920.8125 254.683594 919.378906 254.246094 C 917.945312 253.8125 916.539062 253.308594 915.152344 252.734375 C 913.769531 252.160156 912.417969 251.519531 911.097656 250.8125 C 909.777344 250.101562 908.492188 249.332031 907.25 248.5 C 906.003906 247.664062 904.800781 246.773438 903.644531 245.820312 C 902.488281 244.871094 901.378906 243.863281 900.320312 242.800781 C 899.261719 241.742188 898.257812 240.632812 897.308594 239.472656 C 896.355469 238.3125 895.464844 237.109375 894.632812 235.859375 C 893.800781 234.613281 893.03125 233.328125 892.328125 232.003906 C 891.621094 230.679688 890.980469 229.324219 890.410156 227.941406 C 889.835938 226.554688 889.332031 225.144531 888.898438 223.707031 C 888.460938 222.269531 888.097656 220.816406 887.808594 219.347656 C 887.515625 217.875 887.296875 216.390625 887.148438 214.898438 C 887 213.40625 886.929688 211.910156 886.929688 210.410156 L 886.929688 77.140625 C 886.929688 75.640625 887 74.144531 887.148438 72.652344 C 887.296875 71.15625 887.515625 69.675781 887.808594 68.203125 C 888.097656 66.730469 888.460938 65.277344 888.898438 63.84375 C 889.332031 62.40625 889.835938 60.996094 890.410156 59.609375 C 890.980469 58.222656 891.621094 56.867188 892.328125 55.546875 C 893.03125 54.222656 893.800781 52.9375 894.632812 51.691406 C 895.464844 50.441406 896.355469 49.238281 897.308594 48.078125 C 898.257812 46.917969 899.261719 45.808594 900.320312 44.746094 C 901.378906 43.6875 902.488281 42.679688 903.644531 41.726562 C 904.800781 40.777344 906.003906 39.882812 907.25 39.050781 C 908.492188 38.214844 909.777344 37.445312 911.097656 36.738281 C 912.417969 36.03125 913.769531 35.390625 915.152344 34.816406 C 916.539062 34.242188 917.945312 33.738281 919.378906 33.300781 C 920.8125 32.867188 922.261719 32.503906 923.730469 32.210938 C 925.199219 31.917969 926.679688 31.699219 928.167969 31.550781 C 929.660156 31.402344 931.152344 31.328125 932.652344 31.328125 Z M 932.652344 31.328125 " fill-opacity="1" fill-rule="nonzero"/></g><g clip-path="url(#9ae74fde25)"><path fill="#c8e4fe" d="M 1154.132812 43.824219 L 1154.132812 243.726562 C 1154.132812 250.621094 1148.546875 256.21875 1141.664062 256.21875 C 1134.78125 256.21875 1129.195312 250.621094 1129.195312 243.726562 L 1129.195312 43.824219 C 1129.195312 36.925781 1134.78125 31.328125 1141.664062 31.328125 C 1148.546875 31.328125 1154.132812 36.925781 1154.132812 43.824219 Z M 856.632812 31.328125 C 849.75 31.328125 844.164062 36.925781 844.164062 43.824219 L 844.164062 243.726562 C 844.164062 250.621094 849.75 256.21875 856.632812 256.21875 C 863.519531 256.21875 869.105469 250.621094 869.105469 243.726562 L 869.105469 43.824219 C 869.105469 36.925781 863.519531 31.328125 856.632812 31.328125 Z M 856.632812 31.328125 " fill-opacity="1" fill-rule="nonzero"/></g><g clip-path="url(#8a6b21d3d7)"><path fill="#8bc727" d="M 1067.507812 127.964844 C 1057.734375 118.121094 1042.269531 116.605469 1030.78125 124.300781 L 996.648438 147.089844 L 966.171875 124.199219 C 956.328125 116.820312 942.828125 116.386719 931.902344 123.734375 L 886.910156 158.183594 L 886.910156 210.410156 C 886.910156 235.679688 907.414062 256.21875 932.632812 256.21875 L 1065.648438 256.21875 C 1090.871094 256.21875 1111.371094 235.679688 1111.371094 210.410156 L 1111.371094 171.929688 L 1067.492188 127.964844 Z M 1067.507812 127.964844 " fill-opacity="1" fill-rule="nonzero"/></g><g clip-path="url(#3ce63d00c5)"><path fill="#c8e4fe" d="M -50.207031 31.328125 L 82.804688 31.328125 C 84.304688 31.328125 85.796875 31.402344 87.289062 31.550781 C 88.777344 31.699219 90.257812 31.917969 91.726562 32.210938 C 93.195312 32.503906 94.644531 32.867188 96.078125 33.300781 C 97.511719 33.738281 98.921875 34.242188 100.304688 34.816406 C 101.6875 35.390625 103.039062 36.03125 104.359375 36.738281 C 105.679688 37.445312 106.964844 38.214844 108.207031 39.050781 C 109.453125 39.882812 110.65625 40.777344 111.8125 41.726562 C 112.96875 42.679688 114.078125 43.6875 115.136719 44.746094 C 116.195312 45.808594 117.199219 46.917969 118.152344 48.078125 C 119.101562 49.238281 119.992188 50.441406 120.824219 51.6875 C 121.65625 52.9375 122.425781 54.222656 123.128906 55.546875 C 123.835938 56.867188 124.476562 58.222656 125.046875 59.609375 C 125.621094 60.996094 126.125 62.40625 126.558594 63.84375 C 126.996094 65.277344 127.359375 66.730469 127.652344 68.203125 C 127.941406 69.675781 128.164062 71.15625 128.308594 72.652344 C 128.457031 74.144531 128.527344 75.640625 128.527344 77.140625 L 128.527344 210.410156 C 128.527344 211.910156 128.457031 213.40625 128.308594 214.898438 C 128.164062 216.390625 127.941406 217.875 127.652344 219.347656 C 127.359375 220.816406 126.996094 222.269531 126.558594 223.707031 C 126.125 225.144531 125.621094 226.554688 125.046875 227.941406 C 124.476562 229.324219 123.835938 230.679688 123.128906 232.003906 C 122.425781 233.328125 121.65625 234.613281 120.824219 235.859375 C 119.992188 237.109375 119.101562 238.3125 118.152344 239.472656 C 117.199219 240.632812 116.195312 241.742188 115.136719 242.800781 C 114.078125 243.863281 112.96875 244.871094 111.8125 245.820312 C 110.65625 246.773438 109.453125 247.664062 108.207031 248.5 C 106.964844 249.332031 105.679688 250.101562 104.359375 250.8125 C 103.039062 251.519531 101.6875 252.160156 100.304688 252.734375 C 98.921875 253.308594 97.511719 253.8125 96.078125 254.246094 C 94.644531 254.683594 93.195312 255.046875 91.726562 255.339844 C 90.257812 255.632812 88.777344 255.851562 87.289062 256 C 85.796875 256.144531 84.304688 256.21875 82.804688 256.21875 L -50.207031 256.21875 C -51.703125 256.21875 -53.199219 256.144531 -54.6875 256 C -56.179688 255.851562 -57.65625 255.632812 -59.125 255.339844 C -60.59375 255.046875 -62.046875 254.683594 -63.480469 254.246094 C -64.910156 253.8125 -66.320312 253.308594 -67.703125 252.734375 C -69.085938 252.160156 -70.4375 251.519531 -71.761719 250.8125 C -73.082031 250.101562 -74.363281 249.332031 -75.609375 248.5 C -76.855469 247.664062 -78.054688 246.773438 -79.210938 245.820312 C -80.371094 244.871094 -81.476562 243.863281 -82.539062 242.800781 C -83.597656 241.742188 -84.601562 240.632812 -85.550781 239.472656 C -86.5 238.3125 -87.390625 237.109375 -88.222656 235.859375 C -89.054688 234.613281 -89.824219 233.328125 -90.53125 232.003906 C -91.234375 230.679688 -91.875 229.324219 -92.449219 227.941406 C -93.023438 226.554688 -93.527344 225.144531 -93.960938 223.707031 C -94.394531 222.269531 -94.757812 220.816406 -95.050781 219.347656 C -95.34375 217.875 -95.5625 216.390625 -95.710938 214.898438 C -95.855469 213.40625 -95.929688 211.910156 -95.929688 210.410156 L -95.929688 77.140625 C -95.929688 75.640625 -95.855469 74.144531 -95.710938 72.652344 C -95.5625 71.15625 -95.34375 69.675781 -95.050781 68.203125 C -94.757812 66.730469 -94.394531 65.277344 -93.960938 63.84375 C -93.527344 62.40625 -93.023438 60.996094 -92.449219 59.609375 C -91.875 58.222656 -91.234375 56.867188 -90.53125 55.546875 C -89.824219 54.222656 -89.054688 52.9375 -88.222656 51.691406 C -87.390625 50.441406 -86.5 49.238281 -85.550781 48.078125 C -84.601562 46.917969 -83.597656 45.808594 -82.539062 44.746094 C -81.476562 43.6875 -80.371094 42.679688 -79.210938 41.726562 C -78.054688 40.777344 -76.855469 39.882812 -75.609375 39.050781 C -74.363281 38.214844 -73.082031 37.445312 -71.761719 36.738281 C -70.4375 36.03125 -69.085938 35.390625 -67.703125 34.816406 C -66.320312 34.242188 -64.910156 33.738281 -63.480469 33.300781 C -62.046875 32.867188 -60.59375 32.503906 -59.125 32.210938 C -57.65625 31.917969 -56.179688 31.699219 -54.6875 31.550781 C -53.199219 31.402344 -51.703125 31.328125 -50.207031 31.328125 Z M -50.207031 31.328125 " fill-opacity="1" fill-rule="nonzero"/></g><g clip-path="url(#03a392f072)"><path fill="#c8e4fe" d="M 171.277344 43.824219 L 171.277344 243.726562 C 171.277344 250.621094 165.6875 256.21875 158.804688 256.21875 C 151.921875 256.21875 146.335938 250.621094 146.335938 243.726562 L 146.335938 43.824219 C 146.335938 36.925781 151.921875 31.328125 158.804688 31.328125 C 165.6875 31.328125 171.277344 36.925781 171.277344 43.824219 Z M -126.222656 31.328125 C -133.105469 31.328125 -138.691406 36.925781 -138.691406 43.824219 L -138.691406 243.726562 C -138.691406 250.621094 -133.105469 256.21875 -126.222656 256.21875 C -119.339844 256.21875 -113.753906 250.621094 -113.753906 243.726562 L -113.753906 43.824219 C -113.753906 36.925781 -119.339844 31.328125 -126.222656 31.328125 Z M -126.222656 31.328125 " fill-opacity="1" fill-rule="nonzero"/></g><g clip-path="url(#046fe6858e)"><path fill="#8bc727" d="M 84.652344 127.964844 C 74.875 118.121094 59.414062 116.605469 47.921875 124.300781 L 13.789062 147.089844 L -16.6875 124.199219 C -26.53125 116.820312 -40.03125 116.386719 -50.953125 123.734375 L -95.945312 158.183594 L -95.945312 210.410156 C -95.945312 235.679688 -75.445312 256.21875 -50.222656 256.21875 L 82.789062 256.21875 C 108.011719 256.21875 128.511719 235.679688 128.511719 210.410156 L 128.511719 171.929688 L 84.636719 127.964844 Z M 84.652344 127.964844 " fill-opacity="1" fill-rule="nonzero"/></g><g clip-path="url(#57d6fd9718)"><path fill="#88838a" d="M 991.914062 160.496094 C 977.664062 160.496094 966.109375 148.945312 966.109375 134.695312 C 966.109375 120.441406 977.664062 108.890625 991.914062 108.890625 C 1006.164062 108.890625 1017.71875 120.441406 1017.71875 134.695312 C 1017.71875 148.945312 1006.164062 160.496094 991.914062 160.496094 Z M 991.914062 160.496094 " fill-opacity="1" fill-rule="nonzero"/></g><path fill="#f4f4f4" d="M 988.074219 148.039062 L 986.664062 146.625 L 998.597656 134.695312 L 986.664062 122.761719 L 988.074219 121.347656 L 1001.421875 134.695312 Z M 988.074219 148.039062 " fill-opacity="1" fill-rule="nonzero"/><g clip-path="url(#485636bd42)"><path fill="#88838a" d="M 32.082031 108.890625 C 46.335938 108.890625 57.886719 120.441406 57.886719 134.695312 C 57.886719 148.945312 46.335938 160.496094 32.082031 160.496094 C 17.832031 160.496094 6.28125 148.945312 6.28125 134.695312 C 6.28125 120.441406 17.832031 108.890625 32.082031 108.890625 Z M 32.082031 108.890625 " fill-opacity="1" fill-rule="nonzero"/></g><path fill="#f4f4f4" d="M 35.921875 121.347656 L 37.335938 122.761719 L 25.402344 134.695312 L 37.335938 146.628906 L 35.921875 148.039062 L 22.578125 134.695312 Z M 35.921875 121.347656 " fill-opacity="1" fill-rule="nonzero"/></svg>